<svg id="Layer_1" data-name="Layer 1" xmlns="http://www.w3.org/2000/svg" viewBox="0 0 465.96 454.46"><defs><style>.cls-1{fill-rule:evenodd;}</style></defs><path class="cls-1" d="M423.44,197.49c-128.67,0-233,101.74-233,227.23S294.77,652,423.44,652s233-101.73,233-227.23S552.11,197.49,423.44,197.49ZM537.8,505a64.77,64.77,0,0,1-40.44,21.45c-1.62.21-5.24.32-8.09.4V527H342.85a49.93,49.93,0,0,1,0-99.85H449.07a32.64,32.64,0,0,1,0,65.28H367.21a8.71,8.71,0,1,1,0-17.41h81.86a15.24,15.24,0,0,0,0-30.47H342.85a32.53,32.53,0,0,0,0,65.05H485.68l1.23,0c2.53-.06,7.15-.17,8.27-.31A47.3,47.3,0,0,0,489.27,415h-141a8.7,8.7,0,0,1-8.71-8.7,83.92,83.92,0,0,1,160.89-33.39,8.68,8.68,0,0,1-15.92,6.94,66.53,66.53,0,0,0-127,17.75H489.27A64.6,64.6,0,0,1,537.8,505Z" transform="translate(-190.46 -197.49)"/></svg>