<svg id="Layer_1" data-name="Layer 1" xmlns="http://www.w3.org/2000/svg" viewBox="0 0 744.59 137.67"><defs><style>.cls-1{fill-rule:evenodd;fill:currentColor;}.cls-2{fill:currentColor;stroke:currentColor;stroke-miterlimit:10;stroke-width:2px;}</style></defs><path class="cls-1" d="M78.87,8.63c-39,0-70.58,30.82-70.58,68.84s31.6,68.84,70.58,68.84,70.58-30.82,70.58-68.84S117.85,8.63,78.87,8.63Zm34.65,93.16a19.68,19.68,0,0,1-12.25,6.5c-.49.06-1.59.09-2.45.11v0H54.46a15.13,15.13,0,0,1,0-30.25H86.64a9.89,9.89,0,0,1,0,19.77H61.84a2.64,2.64,0,1,1,0-5.27h24.8a4.62,4.62,0,0,0,0-9.23H54.46a9.86,9.86,0,0,0,0,19.71H98.1c.77,0,2.17,0,2.51-.1a14.33,14.33,0,0,0-1.79-28.54H56.09a2.64,2.64,0,0,1-2.64-2.63,25.42,25.42,0,0,1,48.74-10.12,2.63,2.63,0,0,1-4.82,2.1,20.25,20.25,0,0,0-7.46-8.83,20.15,20.15,0,0,0-31,14.21H98.82a19.58,19.58,0,0,1,14.7,32.53Z" transform="translate(-8.29 -8.63)"/><path class="cls-2" d="M226.31,42.2V36.61h10V61.38h-10V55.75Q220,46.21,209,46.21q-6.72,0-10.29,2.71a9.18,9.18,0,0,0-3.58,7.8,8.73,8.73,0,0,0,3.39,7.43c2.25,1.7,5.72,3.14,10.38,4.33L218.45,71q9.17,2.44,14.06,6.45a19,19,0,0,1,6.4,8.51,31.87,31.87,0,0,1,1.49,10q0,11.1-6.94,17.61t-18.59,6.5q-11.12,0-20.21-8.13v6.78H184.47V89h10.19v7.21q7.31,13.44,19.07,13.44,6.89,0,10.68-3.55t3.8-10q0-8.78-12.36-12.19l-10.19-2.87q-11-3.15-16.26-8.51T184.14,58.4q0-10.78,6.37-16.72t17.59-5.93A29.46,29.46,0,0,1,226.31,42.2Z" transform="translate(-8.29 -8.63)"/><path class="cls-2" d="M272.49,61.82v10H262.08v29.87c0,3.1.33,5.12,1,6a4,4,0,0,0,3.44,1.38,18.12,18.12,0,0,0,6-1v10.14a31.67,31.67,0,0,1-8.4,1.51q-7.05,0-10.14-3.55T250.86,104V71.84h-7.42v-10h7.42V53.2L262.08,43V61.82Z" transform="translate(-8.29 -8.63)"/><path class="cls-2" d="M305.71,110q7.53,0,16.31-7.32V71.84H311.94v-10h21.3v47H343v10H322v-6.56q-9.86,7.53-18.75,7.53-8,0-11.84-4.76t-3.82-15.83V71.84h-8v-10h19.19v39.67q0,4.4,1.6,6.45T305.71,110Z" transform="translate(-8.29 -8.63)"/><path class="cls-2" d="M419.37,108.81v10H398v-8.35q-8.56,9.33-20.44,9.32A27.28,27.28,0,0,1,363,115.88a26.64,26.64,0,0,1-9.81-10.54,31.28,31.28,0,0,1-3.49-14.74,31.61,31.61,0,0,1,3.71-15.18,28.77,28.77,0,0,1,10.27-11,26.29,26.29,0,0,1,14.2-4.09,25.39,25.39,0,0,1,10.49,2.22,31.89,31.89,0,0,1,9.62,7V47H387V37.1h22.11v71.71Zm-39.73,1A16.65,16.65,0,0,0,389,107a19.31,19.31,0,0,0,6.55-7.37A21.16,21.16,0,0,0,398,89.78a20,20,0,0,0-2.39-9.7A17.93,17.93,0,0,0,389,73.14a18.2,18.2,0,0,0-9.54-2.54,16.05,16.05,0,0,0-9.19,2.73,19.25,19.25,0,0,0-6.36,7.27,21.65,21.65,0,0,0,.05,19.64,18,18,0,0,0,6.5,7A17.17,17.17,0,0,0,379.64,109.78Z" transform="translate(-8.29 -8.63)"/><path class="cls-2" d="M444.24,71.84,456.6,104l12-32.2H461v-10H488.2v10h-8.4l-28.13,72.47h-19v-9.76h11.22l6.77-16.75-18.64-46h-9.54v-10H451v10Z" transform="translate(-8.29 -8.63)"/><path class="cls-2" d="M593.45,46.1v-9h10.41V63.28H593.24a30.46,30.46,0,0,0-11-12.25,28.23,28.23,0,0,0-15.33-4.39,25.32,25.32,0,0,0-14.42,4.25,29,29,0,0,0-9.89,11.39A33.81,33.81,0,0,0,539,77.59a33.46,33.46,0,0,0,3.71,15.61A29.89,29.89,0,0,0,553,104.63a25.69,25.69,0,0,0,14.47,4.28,27.08,27.08,0,0,0,17.34-6q7.53-6,11-17l10.4,5.53q-4.23,13.67-14.93,21.17t-25.12,7.5a39.13,39.13,0,0,1-35.42-20.89,43.73,43.73,0,0,1-5.12-21,45.84,45.84,0,0,1,5.23-22.12,37.63,37.63,0,0,1,14.44-15,41.36,41.36,0,0,1,21.08-5.33A39.61,39.61,0,0,1,581,38.4,41.78,41.78,0,0,1,593.45,46.1Z" transform="translate(-8.29 -8.63)"/><path class="cls-2" d="M643.64,108.81v10h-30v-10h10.08V47H613.67V37.1H635v71.71Z" transform="translate(-8.29 -8.63)"/><path class="cls-2" d="M678.71,108.81v10H649.93v-10h8.89v-37h-8.89v-10H670v47Zm-8-66.18a6.85,6.85,0,0,1-6.78,6.77,6.31,6.31,0,0,1-4.71-2,6.81,6.81,0,0,1,0-9.54,6.32,6.32,0,0,1,4.71-2,6.68,6.68,0,0,1,6.78,6.78Z" transform="translate(-8.29 -8.63)"/><path class="cls-2" d="M751.88,90.6a31.23,31.23,0,0,1-3.69,14.9,28.34,28.34,0,0,1-10.05,11,26,26,0,0,1-14.12,4q-11.43,0-20-8.78v22.65h11.11v10H682.5v-10h10.3V71.84h-9.54v-10H704v9.1a28.35,28.35,0,0,1,9.32-7.42,24.88,24.88,0,0,1,10.9-2.44,26.22,26.22,0,0,1,14.36,4,27.31,27.31,0,0,1,9.78,10.76A31.82,31.82,0,0,1,751.88,90.6Zm-28,19.62a14,14,0,0,0,8.4-2.71,18.17,18.17,0,0,0,5.85-7.38,23.55,23.55,0,0,0,2.12-9.86,20.33,20.33,0,0,0-2.34-9.67,18.43,18.43,0,0,0-6.39-7,16.52,16.52,0,0,0-9.16-2.63,16.94,16.94,0,0,0-9.54,2.79,19,19,0,0,0-6.56,7.4,22.18,22.18,0,0,0-2.33,10.14q0,8.88,5.61,13.93T723.86,110.22Z" transform="translate(-8.29 -8.63)"/></svg>